<?xml version="1.0" encoding="UTF-8" standalone="no"?>
<!DOCTYPE svg PUBLIC "-//W3C//DTD SVG 20010904//EN"
              "http://www.w3.org/TR/2001/REC-SVG-20010904/DTD/svg10.dtd">

<svg xmlns="http://www.w3.org/2000/svg"
     width="72mm" height="90mm"
     viewBox="0 0 51 44">
  <path id="Выделение"
        fill="red" stroke="black" stroke-width="1"
        d="M 15.00,0.00
           C 20.19,3.03 25.02,7.93 26.00,14.00
             26.00,14.00 17.00,16.00 17.00,16.00
             13.41,10.82 10.91,9.47 10.00,3.00
             10.00,3.00 15.00,0.00 15.00,0.00 Z
           M 18.00,31.00
           C 18.00,31.00 20.98,19.30 20.98,19.30
             20.98,19.30 26.07,14.71 26.07,14.71
             26.07,14.71 30.25,8.78 30.25,8.78
             30.25,8.78 41.00,10.00 41.00,10.00
             46.39,20.51 43.37,16.78 45.73,23.00
             48.75,30.93 50.99,25.82 51.00,40.00
             51.00,40.00 25.00,37.00 25.00,37.00
             24.52,38.70 23.95,41.89 22.42,42.89
             20.92,43.87 8.18,42.09 6.63,41.01
             3.96,39.14 0.76,31.19 0.00,28.00
             0.00,28.00 18.00,31.00 18.00,31.00 Z" />
</svg>
