<?xml version="1.0" encoding="UTF-8" standalone="no"?>
<!DOCTYPE svg PUBLIC "-//W3C//DTD SVG 20010904//EN"
              "http://www.w3.org/TR/2001/REC-SVG-20010904/DTD/svg10.dtd">

<svg xmlns="http://www.w3.org/2000/svg"
     width="72mm" height="90mm"
     viewBox="0 0 564 703">
  <path id="Выделение"
        fill="red" stroke="black" stroke-width="1"
        d="M 504.00,9.00
           C 515.50,17.66 514.98,-0.39 525.86,0.64
             529.84,1.02 528.78,5.47 532.41,9.90
             534.64,12.60 537.79,13.88 539.41,17.10
             541.61,21.80 539.46,24.54 539.41,29.00
             539.49,38.43 542.23,37.58 540.00,50.00
             547.67,53.05 548.82,59.77 545.73,67.00
             544.48,69.93 541.77,72.60 542.53,76.00
             543.21,79.09 551.05,87.48 547.76,94.98
             544.52,102.36 540.57,97.75 534.89,104.13
             532.74,106.55 527.93,112.94 527.12,116.00
             526.64,119.23 528.46,121.85 527.12,124.91
             524.94,128.95 518.65,130.50 517.75,133.53
             517.15,134.75 517.91,138.32 517.75,140.00
             517.94,144.08 516.25,148.38 517.13,152.07
             517.13,152.07 522.86,167.04 522.86,167.04
             523.51,171.58 523.13,181.09 524.72,185.91
             525.63,188.65 527.96,190.04 529.55,193.04
             529.55,193.04 534.95,209.00 534.95,209.00
             536.15,213.60 535.12,214.20 535.46,217.00
             535.46,217.00 537.27,223.00 537.27,223.00
             537.27,223.00 537.27,228.00 537.27,228.00
             537.27,228.00 541.80,241.00 541.80,241.00
             541.80,241.00 541.80,257.00 541.80,257.00
             542.53,261.93 544.56,261.44 545.00,269.00
             549.10,268.46 556.05,266.84 559.43,270.01
             561.40,271.85 561.00,275.50 561.00,278.00
             561.00,278.00 562.00,298.00 562.00,298.00
             562.09,307.21 563.32,305.82 563.80,311.00
             564.07,313.86 560.17,329.75 559.05,333.00
             558.38,334.95 556.40,338.84 556.26,340.58
             556.04,343.22 557.98,345.25 558.04,348.00
             558.10,351.24 555.61,353.55 555.09,361.00
             555.09,361.00 555.96,382.00 555.96,382.00
             555.96,382.00 553.16,398.00 553.16,398.00
             552.18,400.68 550.46,402.53 549.56,406.00
             549.56,406.00 548.82,413.00 548.82,413.00
             548.82,413.00 544.60,427.68 544.60,427.68
             542.60,431.24 537.55,432.81 533.46,437.18
             528.68,442.29 523.10,452.09 521.78,459.00
             521.78,459.00 521.78,466.00 521.78,466.00
             521.78,466.00 514.44,491.00 514.44,491.00
             512.92,494.61 509.92,496.68 509.34,498.96
             508.15,503.60 515.38,503.73 514.55,510.01
             514.16,513.03 511.89,514.98 511.15,524.00
             510.86,526.59 511.07,526.66 511.15,529.00
             511.33,531.13 509.54,543.79 508.90,546.00
             507.50,550.82 504.94,553.25 503.69,557.00
             503.69,557.00 500.21,571.00 500.21,571.00
             500.21,571.00 499.70,576.00 499.70,576.00
             499.70,576.00 497.43,581.58 497.43,581.58
             496.49,585.18 499.18,584.19 496.58,596.00
             495.38,601.44 492.08,616.79 490.01,621.00
             490.01,621.00 480.52,634.26 480.52,634.26
             480.21,635.76 481.58,639.02 481.86,641.00
             481.86,641.00 484.00,660.00 484.00,660.00
             484.00,660.00 483.00,661.00 483.00,661.00
             483.00,661.00 456.00,653.00 456.00,653.00
             456.00,653.00 450.00,686.00 450.00,686.00
             450.00,686.00 427.00,681.42 427.00,681.42
             427.00,681.42 403.00,677.75 403.00,677.75
             399.25,677.10 387.35,674.18 384.42,676.04
             381.61,677.81 379.75,686.69 379.00,690.00
             379.00,690.00 365.00,688.00 365.00,688.00
             365.00,688.00 361.00,702.00 361.00,702.00
             353.85,701.84 346.97,699.68 340.00,698.21
             340.00,698.21 309.00,692.39 309.00,692.39
             309.00,692.39 293.04,689.58 293.04,689.58
             286.23,689.57 288.62,698.45 284.49,700.89
             282.11,702.29 272.91,698.85 270.00,698.00
             270.00,698.00 278.00,654.00 278.00,654.00
             278.72,650.48 282.22,637.77 281.31,635.14
             279.88,631.02 271.68,631.05 268.00,630.39
             268.00,630.39 253.00,627.07 253.00,627.07
             253.00,627.07 246.42,624.58 246.42,624.58
             242.57,624.38 237.23,629.67 236.00,633.00
             233.36,632.91 229.78,632.20 227.85,634.40
             225.14,637.51 227.07,643.86 222.77,645.23
             219.52,646.27 211.97,642.19 205.00,643.52
             200.22,644.42 188.13,647.14 184.00,648.87
             179.36,650.83 169.56,656.27 165.00,656.75
             161.14,657.16 142.12,652.36 137.00,651.28
             137.00,651.28 115.00,646.88 115.00,646.88
             112.60,646.34 108.76,646.14 107.60,643.69
             106.25,640.83 108.36,634.07 109.13,631.00
             109.13,631.00 116.00,602.00 116.00,602.00
             116.00,602.00 85.00,595.42 85.00,595.42
             85.00,595.42 64.00,590.66 64.00,590.66
             64.00,590.66 49.02,587.36 49.02,587.36
             44.98,586.16 45.56,585.91 42.53,583.58
             36.43,578.88 35.22,579.48 35.00,571.00
             30.30,572.38 30.13,573.84 26.91,574.96
             18.34,577.94 15.10,570.04 17.23,563.00
             18.28,559.51 20.92,556.92 22.98,554.00
             24.09,552.43 25.94,550.00 25.84,548.00
             25.69,544.79 21.59,542.26 19.00,538.00
             15.56,532.34 15.00,526.40 15.00,520.00
             23.47,518.41 31.74,512.62 34.00,511.97
             37.58,510.94 41.05,513.64 45.85,509.50
             50.99,505.08 45.88,502.54 51.00,499.00
             47.54,492.81 43.98,495.61 40.74,491.59
             38.40,488.68 39.31,485.79 43.06,485.07
             43.06,485.07 46.00,485.07 46.00,485.07
             46.27,483.56 46.41,482.39 47.00,481.02
             51.07,471.48 58.61,477.30 64.00,477.47
             64.00,477.47 69.00,476.88 69.00,476.88
             72.66,476.85 77.84,479.10 80.00,482.00
             84.45,476.72 92.62,463.69 90.87,456.42
             89.75,451.80 82.46,448.92 79.43,445.53
             77.27,443.12 74.75,434.20 76.79,431.42
             78.60,428.95 82.21,428.44 85.00,428.00
             85.00,428.00 86.00,431.00 86.00,431.00
             89.98,423.91 92.96,425.72 100.00,427.00
             100.00,427.00 104.81,414.64 104.81,414.64
             104.81,414.64 110.59,412.81 110.59,412.81
             110.59,412.81 114.00,408.00 114.00,408.00
             119.08,408.51 119.88,408.07 121.00,403.00
             121.00,403.00 135.00,405.00 135.00,405.00
             135.00,405.00 140.00,384.00 140.00,384.00
             154.15,382.83 141.67,363.40 158.00,368.00
             158.00,368.00 160.54,356.00 160.54,356.00
             160.54,356.00 163.00,340.00 163.00,340.00
             163.00,340.00 199.00,346.00 199.00,346.00
             199.17,350.93 199.14,352.20 204.00,354.00
             204.00,354.00 204.00,362.00 204.00,362.00
             204.00,362.00 210.00,362.00 210.00,362.00
             210.00,362.00 211.60,368.28 211.60,368.28
             211.60,368.28 221.00,371.25 221.00,371.25
             221.00,371.25 243.00,376.00 243.00,376.00
             243.00,376.00 244.00,370.00 244.00,370.00
             246.91,370.39 254.37,372.17 256.72,370.89
             259.58,369.34 260.41,363.94 261.00,361.00
             269.09,361.40 276.58,365.04 284.00,368.00
             284.00,368.00 314.00,379.60 314.00,379.60
             317.70,381.08 333.04,387.49 336.00,387.03
             338.45,386.65 341.65,383.71 344.00,382.36
             348.09,380.01 356.47,378.68 358.28,374.86
             359.06,373.21 360.04,366.23 360.41,364.00
             360.41,364.00 364.00,344.00 364.00,344.00
             364.00,344.00 378.00,346.00 378.00,346.00
             378.26,342.82 380.15,329.57 381.93,327.60
             383.80,325.55 392.32,324.03 394.00,334.00
             394.00,334.00 399.00,331.00 399.00,331.00
             397.97,325.70 398.20,323.01 404.00,322.00
             404.00,322.00 407.00,302.00 407.00,302.00
             407.00,302.00 414.00,302.00 414.00,302.00
             414.00,302.00 416.85,273.04 416.85,273.04
             416.40,268.86 414.19,268.24 413.27,263.99
             413.27,263.99 410.00,237.00 410.00,237.00
             409.96,233.02 409.62,225.61 411.43,222.18
             413.83,217.65 418.60,218.10 418.11,212.96
             417.75,209.29 410.58,197.16 408.19,194.43
             404.08,189.71 402.02,194.24 401.96,183.00
             401.96,183.00 401.96,169.00 401.96,169.00
             401.96,169.00 401.00,157.00 401.00,157.00
             401.00,157.00 401.00,126.00 401.00,126.00
             401.00,126.00 407.00,126.00 407.00,126.00
             407.00,126.00 407.00,103.00 407.00,103.00
             407.00,103.00 408.02,96.60 408.02,96.60
             408.02,96.60 414.00,95.00 414.00,95.00
             414.00,95.00 414.00,66.00 414.00,66.00
             414.00,66.00 439.00,65.00 439.00,65.00
             439.27,63.01 439.60,59.99 440.51,58.21
             442.72,53.92 450.50,51.83 455.00,52.19
             456.89,52.34 459.16,53.05 461.00,52.75
             463.94,52.27 465.40,50.22 469.00,49.31
             471.42,48.69 473.29,49.25 475.62,47.40
             478.35,45.25 485.21,30.77 486.66,27.00
             488.10,23.25 487.79,20.89 490.40,17.06
             493.53,12.47 495.34,13.70 499.00,12.03
             499.00,12.03 504.00,9.00 504.00,9.00 Z" />
</svg>
